<?xml version="1.0" standalone="no"?>
<!DOCTYPE svg PUBLIC "-//W3C//DTD SVG 20010904//EN"
 "http://www.w3.org/TR/2001/REC-SVG-20010904/DTD/svg10.dtd">
<svg version="1.0" xmlns="http://www.w3.org/2000/svg"
 width="1024.000000pt" height="1024.000000pt" viewBox="0 0 1024.000000 1024.000000"
 preserveAspectRatio="xMidYMid meet">
<metadata>
Created by potrace 1.14, written by Peter Selinger 2001-2017
</metadata>
<g transform="translate(0.000000,1024.000000) scale(0.100000,-0.100000)"
fill="#000000" stroke="none">
<path d="M0 5120 l0 -5120 5120 0 5120 0 0 5120 0 5120 -5120 0 -5120 0 0
-5120z m4387 3395 c368 -48 736 -205 1037 -443 105 -82 281 -264 362 -372 266
-359 403 -739 429 -1200 31 -532 -354 -1401 -1146 -2587 -71 -106 -129 -195
-129 -198 0 -2 120 -6 267 -7 l267 -3 248 -990 c136 -544 248 -993 248 -997 0
-5 -837 -8 -1860 -8 -1023 0 -1860 3 -1860 8 0 4 111 454 247 999 l248 993
266 2 267 3 -115 170 c-620 922 -1026 1731 -1134 2263 -26 130 -35 350 -20
493 44 408 195 775 452 1099 82 104 266 284 370 362 298 223 637 364 994 412
139 19 418 19 562 1z m3279 -3430 c28 -16 49 -39 63 -68 21 -43 21 -44 21
-1320 0 -1063 -2 -1283 -14 -1310 -48 -113 -199 -144 -290 -59 -59 56 -56 -21
-56 1369 0 1274 0 1277 21 1320 43 89 164 121 255 68z m-545 -448 c29 -16 52
-38 69 -68 l25 -44 3 -808 c2 -541 -1 -821 -8 -847 -21 -77 -101 -140 -177
-140 -59 1 -118 32 -150 81 l-28 43 -3 825 c-2 727 -1 831 13 867 39 103 155
144 256 91z m1096 -13 c78 -62 73 0 73 -927 0 -793 -1 -829 -19 -865 -23 -46
-46 -67 -94 -87 -92 -38 -195 2 -233 92 -21 48 -21 1667 0 1716 30 72 93 109
178 104 46 -3 65 -9 95 -33z m-1613 -517 c71 -55 71 -54 71 -413 l0 -320 -28
-42 c-78 -119 -260 -106 -318 22 -17 37 -19 69 -19 341 0 270 2 304 19 340 34
75 90 107 177 103 49 -3 69 -10 98 -31z m2124 14 c46 -23 67 -46 87 -94 12
-30 15 -89 15 -337 0 -276 -2 -304 -19 -338 -37 -71 -87 -102 -168 -102 -62 0
-121 35 -153 92 l-25 43 0 310 0 310 27 46 c48 81 153 112 236 70z"/>
<path d="M3900 8119 c-267 -34 -515 -127 -735 -274 -179 -119 -286 -220 -421
-395 -256 -332 -389 -807 -329 -1175 83 -509 543 -1387 1308 -2495 166 -241
377 -530 385 -530 14 1 467 645 660 940 571 872 922 1564 1022 2015 40 177 26
436 -35 664 -78 290 -218 532 -435 752 -231 234 -478 377 -785 455 -72 18
-174 37 -227 43 -111 13 -312 12 -408 0z m339 -1004 c274 -45 509 -233 612
-491 124 -310 50 -648 -193 -880 -155 -149 -325 -217 -543 -218 -146 -1 -232
18 -360 79 -423 203 -579 742 -329 1142 143 230 398 374 674 382 25 0 87 -6
139 -14z"/>
<path d="M3971 6700 c-112 -41 -203 -134 -243 -248 -16 -46 -19 -74 -16 -147
6 -100 31 -168 90 -239 81 -99 242 -160 361 -138 266 50 410 297 317 545 -31
81 -119 175 -202 213 -84 38 -224 45 -307 14z"/>
<path d="M3051 3273 c-6 -21 -71 -283 -146 -583 -75 -300 -138 -553 -141 -562
-5 -17 64 -18 1344 -18 l1350 0 -150 600 -150 600 -238 0 -238 0 -28 -37
c-204 -275 -524 -683 -533 -683 -4 0 -48 50 -97 111 -49 61 -122 152 -163 202
-40 51 -125 163 -189 250 l-115 157 -248 0 -248 0 -10 -37z"/>
</g>
</svg>
